<svg width="1080" height="1080" version="1.1" xmlns="http://www.w3.org/2000/svg" desc="Created with imagetracer.js version 1.2.6" ><path fill="rgb(0,0,0)" stroke="rgb(0,0,0)" stroke-width="1" opacity="0" d="M 0 0 L 1080 0 L 1080 1080 L 0 1080 L 0 0 Z M 284 244 Q 262 248 249 260 Q 228 276 222 307 L 222 766 Q 220 764 219 767 L 217 766 L 217 768 L 215 768 Q 216 770 214 769 L 212 769 Q 209 768 210 772 L 209 771 Q 206 772 208 774 Q 206 778 205 775 L 203 779 L 203 781 L 202 781 L 202 783 L 201 783 L 201 785 L 200 787 L 200 789 L 199 791 L 199 803 L 199 805 L 200 808 L 200 810 L 205 817 Q 204 820 207 819 L 209 823 L 211 826 L 217 830 Q 219 829 218 832 L 235 842 L 261 855 L 295 869 L 301 870 L 318 877 L 331 880 L 334 882 L 352 886 L 356 888 L 365 889 L 377 893 L 402 897 L 406 899 L 412 899 L 417 901 L 431 902 L 446 905 L 455 905 L 463 907 L 500 909 L 501 910 L 580 910 L 581 909 L 606 908 L 607 907 L 618 907 L 625 905 L 642 904 L 648 902 L 661 901 L 676 897 L 686 896 L 736 883 L 776 869 L 778 867 L 783 866 L 785 864 L 790 863 L 811 853 L 834 839 L 835 837 L 838 835 L 839 833 L 842 831 L 844 828 Q 843 825 846 826 Q 845 821 849 819 L 849 815 Q 852 813 850 812 L 851 810 Q 853 802 850 799 L 850 797 L 853 792 L 858 774 L 858 307 L 853 289 L 842 271 Q 826 250 797 244 L 284 244 Z " /><path fill="rgb(254,254,254)" stroke="rgb(254,254,254)" stroke-width="1" opacity="1" d="M 257 389 L 474.5 389 L 475 389.5 L 475 454 L 406 454 L 406 648 L 325 648 L 325 454.5 L 324.5 454 L 257 454 L 257 389 Z " /><path fill="rgb(254,254,254)" stroke="rgb(254,254,254)" stroke-width="1" opacity="1" d="M 497 389 L 595.5 389 L 597 390.5 L 653.5 545 L 708 392.5 L 710.5 389 L 808 389 L 808 648 L 728 648 L 728 520.5 L 727 520.5 L 688 648 L 618.5 648 L 618 645.5 L 578.5 520 L 578 648 L 497.5 648 L 497 647.5 L 497 389 Z " /><path fill="rgb(16,16,47)" stroke="rgb(16,16,47)" stroke-width="1" opacity="0.996078431372549" d="M 286.5 244 L 792.5 244 Q 794.3 246.8 800.5 245 L 818.5 252 Q 832.4 259.6 842 271.5 L 845 276.5 L 844.5 278 Q 847.8 276.9 847 279.5 L 847.5 281 L 840.5 281 L 840 283 Q 845.2 281.3 844 285 L 836.5 285 L 835 286.5 L 836.5 288 L 844 288 L 843.5 290 L 831.5 290 L 830.5 292 Q 834.3 291.3 835 293.5 L 833.5 295 L 826 295 L 826 297 Q 831.2 295.3 830 299 L 822.5 299 L 821 300.5 L 825 302 L 825 304 L 817.5 304 L 817 306 L 824.5 306 L 826 307.5 L 824.5 309 L 812 309 L 812 311 Q 817.2 309.3 816 313 L 808.5 313 L 807 314.5 L 812 316.5 L 810.5 318 L 803 318 Q 801.8 321 805.5 320 L 806.5 322 Q 799.8 320.2 798 323.5 L 798.5 325 L 807 325 L 807 327 L 794.5 327 L 793 328.5 L 798 330.5 L 796.5 332 L 789 332 L 789 334 Q 794.2 332.3 793 336 L 785.5 336 L 784 337.5 L 788 339 L 787.5 341 L 780.5 341 L 779.5 343 L 788 343 L 788 346 L 775.5 346 L 775 348 Q 780.2 346.3 779 350 L 771.5 350 L 770 351.5 L 774 353 L 773.5 355 L 766.5 355 L 765.5 357 Q 769.3 356.3 770 358.5 L 768.5 360 L 761 360 L 761.5 362 L 768.5 362 L 769.5 364 L 757.5 364 L 756 365.5 L 760 367 L 760 369 L 752.5 369 L 752 371 L 756 372.5 L 754.5 374 L 747 374 L 747 376 Q 752.2 374.3 751 378 L 743.5 378 L 742 379.5 L 743.5 381 L 751 381 L 750.5 383 L 738.5 383 L 738 385 L 742 386.5 L 734.5 387 L 732.5 389 L 709 389 L 694.5 430 L 692.5 429 Q 689.5 430.5 692.5 432 L 694 432.5 Q 692.4 435.5 687 434 Q 685.6 437.7 691.5 436 L 693 435.5 L 690.5 439 L 682.5 439 L 682 441 Q 687.2 439.3 686 443 L 678.5 443 L 677 444.5 L 682 446.5 L 680.5 448 L 673 448 Q 671.8 451 675.5 450 L 676.5 452 Q 669.8 450.3 668 453.5 L 668.5 455 L 677 455 L 677 457 L 664.5 457 L 663 458.5 L 668 460.5 L 666.5 462 L 659 462 L 659 464 Q 664.2 462.3 663 466 L 655.5 466 L 654 467.5 L 658 469 L 657.5 471 L 650.5 471 L 649.5 473 L 658 473 L 658 476 L 645.5 476 L 645 478 Q 650.2 476.3 649 480 L 641.5 480 L 640 481.5 L 644 483 L 643.5 485 L 636.5 485 L 635.5 487 Q 639.3 486.3 640 488.5 Q 639 491 634.5 490 L 628 475.5 L 597 389 L 497 389 L 497 647.5 L 496 647.5 L 495.5 642 L 494 642.5 Q 493.3 639.9 496 641 L 496 638 Q 493 639 494 636 Q 497 637.3 496 633.5 L 494.5 634 L 487.5 634 L 487 636 Q 492.2 634.3 491 638 L 483.5 638 L 482 639.5 L 483.5 641 L 491 641 L 490.5 643 L 478.5 643 L 478 645 L 482 646.5 L 474.5 647 L 473 648.5 L 473 650 L 477 650 L 477 652 L 469.5 652 L 468 653.5 L 473 655.5 L 471.5 657 L 464 657 L 464.5 659 L 471.5 659 L 472.5 661 L 460.5 661 L 459 662.5 L 463 664 L 462.5 666 L 455.5 666 L 454.5 668 Q 458.3 667.3 459 669.5 L 457.5 671 L 450 671 L 450 673 Q 455.2 671.3 454 675 L 446.5 675 L 445 676.5 L 446.5 678 L 454 678 L 453.5 680 L 441.5 680 L 440.5 682 Q 444.3 681.3 445 683.5 L 443.5 685 L 436 685 L 436 687 Q 441.2 685.3 440 689 L 432.5 689 L 431 690.5 L 435 692 L 435 694 L 427.5 694 L 427 696 L 434.5 696 L 436 697.5 L 434.5 699 L 422 699 L 422 701 Q 427.2 699.3 426 703 L 418.5 703 L 417 704.5 L 422 706.5 L 420.5 708 L 413 708 Q 411.8 711 415.5 710 L 416.5 712 Q 409.7 710.3 408 713.5 L 408.5 715 L 417 715 L 417 717 L 404.5 717 L 403 718.5 L 408 720.5 L 406.5 722 L 399 722 L 399 724 Q 404.2 722.3 403 726 L 395.5 726 L 394 727.5 L 398 729 L 397.5 731 L 390.5 731 L 389.5 733 L 398 733 L 398 736 L 385.5 736 L 385 738 Q 390.2 736.3 389 740 L 381.5 740 L 380 741.5 L 384 743 L 383.5 745 L 376.5 745 L 375.5 747 Q 379.3 746.3 380 748.5 L 378.5 750 L 371 750 L 371.5 752 L 378.5 752 L 379.5 754 L 367.5 754 L 366 755.5 L 370 757 L 370 759 L 362.5 759 L 362 761 L 366 762.5 L 364.5 764 L 357 764 L 357 766 Q 362.2 764.3 361 768 L 353.5 768 L 352 769.5 L 353.5 771 L 361 771 L 360.5 773 L 348.5 773 L 348 775 L 352 776.5 L 344.5 777 L 343 778.5 L 343 780 L 347 780 L 347 782 L 339.5 782 L 338 783.5 L 343 785.5 L 341.5 787 L 334 787 L 334.5 789 L 341.5 789 L 342.5 791 L 330.5 791 L 329 792.5 L 333 794 L 332.5 796 L 325.5 796 L 324.5 798 Q 328.3 797.3 329 799.5 L 327.5 801 L 320 801 L 320 803 Q 325.2 801.3 324 805 L 316.5 805 L 315 806.5 L 316.5 808 L 324 808 L 323.5 810 L 311.5 810 L 310.5 812 Q 314.3 811.3 315 813.5 L 313.5 815 L 306 815 L 306 817 Q 311.2 815.3 310 819 L 302.5 819 L 301 820.5 L 305 822 L 305 824 L 297.5 824 L 297 826 L 304.5 826 L 306 827.5 L 304.5 829 L 292 829 L 292 831 Q 297.2 829.3 296 833 L 288.5 833 Q 287.5 836 282.5 835 L 270.5 832 L 268.5 830 L 266.5 830 Q 249 822.5 238 808.5 L 229 794.5 L 225 784.5 L 222 770.5 L 222 309.5 L 225 295.5 L 230 283.5 Q 237.6 269.6 249.5 260 L 267.5 249 L 286.5 244 Z M 835 281 Q 834 284 837 283 Q 838 280 835 281 Z M 827 290 Q 825 293 828 292 L 827 290 Z M 818 299 Q 815 301 818 302 Q 821 301 818 299 Z M 808 309 L 809 311 Q 810 308 808 309 Z M 798 318 Q 797 321 800 320 Q 801 317 798 318 Z M 790 327 Q 788 330 791 329 L 790 327 Z M 780 337 L 781 339 Q 782 336 780 337 Z M 770 346 Q 769 349 772 348 Q 773 345 770 346 Z M 762 355 Q 760 358 763 357 L 762 355 Z M 753 364 Q 750 366 753 367 Q 756 366 753 364 Z M 743 374 L 744 376 Q 745 373 743 374 Z M 733 383 Q 732 386 735 385 Q 736 382 733 383 Z M 256 389 L 256 453 L 258 454 L 325 454 L 325 649 L 406 649 L 406 454 L 475 454 L 475 390 L 475 389 L 256 389 Z M 688 429 Q 685 431 688 432 Q 691 431 688 429 Z M 678 439 L 679 441 Q 680 438 678 439 Z M 668 448 Q 667 451 670 450 Q 671 447 668 448 Z M 660 457 Q 658 460 661 459 L 660 457 Z M 650 467 L 651 469 Q 652 466 650 467 Z M 640 476 Q 639 479 642 478 Q 643 475 640 476 Z M 493 624 Q 490 626 493 627 Q 496 626 493 624 Z M 492 629 Q 491 632 495 631 L 496 632 Q 497 627 492 629 Z M 483 634 L 484 636 Q 485 633 483 634 Z M 473 643 Q 472 646 475 645 Q 476 642 473 643 Z M 465 652 Q 463 655 466 654 L 465 652 Z M 455 662 L 456 664 Q 457 661 455 662 Z M 445 671 Q 444 674 447 673 Q 448 670 445 671 Z M 437 680 Q 435 683 438 682 L 437 680 Z M 428 689 Q 425 691 428 692 Q 431 691 428 689 Z M 418 699 L 419 701 Q 420 698 418 699 Z M 408 708 Q 407 711 410 710 Q 411 707 408 708 Z M 400 717 Q 398 720 401 719 L 400 717 Z M 390 727 L 391 729 Q 392 726 390 727 Z M 380 736 Q 379 739 382 738 Q 383 735 380 736 Z M 372 745 Q 370 748 373 747 L 372 745 Z M 363 754 Q 360 756 363 757 Q 366 756 363 754 Z M 353 764 L 354 766 Q 355 763 353 764 Z M 343 773 Q 342 776 345 775 Q 346 772 343 773 Z M 335 782 Q 333 785 336 784 L 335 782 Z M 325 792 L 326 794 Q 327 791 325 792 Z M 315 801 Q 314 804 317 803 Q 318 800 315 801 Z M 307 810 Q 305 813 308 812 L 307 810 Z M 298 819 Q 295 821 298 822 Q 301 821 298 819 Z M 288 829 L 289 831 Q 290 828 288 829 Z " /><path fill="rgb(16,16,47)" stroke="rgb(16,16,47)" stroke-width="1" opacity="0.996078431372549" d="M 847.5 283 L 848.5 285 Q 845.7 285.7 847.5 283 Z " /><path fill="rgb(16,16,47)" stroke="rgb(16,16,47)" stroke-width="1" opacity="0.996078431372549" d="M 847 288 L 849 288.5 L 847 289.5 L 847 288 Z " /><path fill="rgb(16,16,47)" stroke="rgb(16,16,47)" stroke-width="1" opacity="0.996078431372549" d="M 833.5 297 L 834.5 299 Q 831.7 299.7 833.5 297 Z " /><path fill="rgb(16,16,47)" stroke="rgb(16,16,47)" stroke-width="1" opacity="0.996078431372549" d="M 828 302 Q 831 301 830 304 Q 827 305 828 302 Z " /><path fill="rgb(16,16,47)" stroke="rgb(16,16,47)" stroke-width="1" opacity="0.996078431372549" d="M 829.5 306 L 830 308 L 828 307.5 L 829.5 306 Z " /><path fill="rgb(16,16,47)" stroke="rgb(16,16,47)" stroke-width="1" opacity="0.996078431372549" d="M 833.5 306 L 834.5 308 Q 831.7 308.7 833.5 306 Z " /><path fill="rgb(16,16,47)" stroke="rgb(16,16,47)" stroke-width="1" opacity="0.996078431372549" d="M 814.5 316 Q 816.8 315.3 816 317.5 L 814.5 316 Z " /><path fill="rgb(16,16,47)" stroke="rgb(16,16,47)" stroke-width="1" opacity="0.996078431372549" d="M 810.5 320 L 811.5 322 L 809 321.5 L 810.5 320 Z " /><path fill="rgb(16,16,47)" stroke="rgb(16,16,47)" stroke-width="1" opacity="0.996078431372549" d="M 814 325 Q 817 324 816 327 Q 813 328 814 325 Z " /><path fill="rgb(16,16,47)" stroke="rgb(16,16,47)" stroke-width="1" opacity="0.996078431372549" d="M 796.5 334 L 797.5 336 Q 794.7 336.7 796.5 334 Z " /><path fill="rgb(16,16,47)" stroke="rgb(16,16,47)" stroke-width="1" opacity="0.996078431372549" d="M 791 339 Q 794 338 793 341 Q 790 342 791 339 Z " /><path fill="rgb(16,16,47)" stroke="rgb(16,16,47)" stroke-width="1" opacity="0.996078431372549" d="M 796.5 343 Q 799.5 344.5 796.5 346 Q 793.5 344.5 796.5 343 Z " /><path fill="rgb(16,16,47)" stroke="rgb(16,16,47)" stroke-width="1" opacity="0.996078431372549" d="M 777 353 Q 780 352 779 355 Q 776 356 777 353 Z " /><path fill="rgb(16,16,47)" stroke="rgb(16,16,47)" stroke-width="1" opacity="0.996078431372549" d="M 773.5 357 L 774 359.5 L 772 358.5 L 773.5 357 Z " /><path fill="rgb(16,16,47)" stroke="rgb(16,16,47)" stroke-width="1" opacity="0.996078431372549" d="M 773.5 362 L 774 364 L 772 363.5 L 773.5 362 Z " /><path fill="rgb(16,16,47)" stroke="rgb(16,16,47)" stroke-width="1" opacity="0.996078431372549" d="M 777 362 Q 780 361 779 364 Q 776 365 777 362 Z " /><path fill="rgb(16,16,47)" stroke="rgb(16,16,47)" stroke-width="1" opacity="0.996078431372549" d="M 759.5 371 Q 762.5 372.5 759.5 374 Q 756.5 372.5 759.5 371 Z " /><path fill="rgb(16,16,47)" stroke="rgb(16,16,47)" stroke-width="1" opacity="0.996078431372549" d="M 754 376 Q 757 375 756 378 Q 753 379 754 376 Z " /><path fill="rgb(16,16,47)" stroke="rgb(16,16,47)" stroke-width="1" opacity="0.996078431372549" d="M 754 381 L 756 381.5 L 754 382.5 L 754 381 Z " /><path fill="rgb(16,16,47)" stroke="rgb(16,16,47)" stroke-width="1" opacity="0.996078431372549" d="M 758.5 381 Q 760.8 380.3 760 382.5 L 758.5 381 Z " /><path fill="rgb(16,16,47)" stroke="rgb(16,16,47)" stroke-width="1" opacity="0.996078431372549" d="M 684.5 446 Q 686.8 445.3 686 447.5 L 684.5 446 Z " /><path fill="rgb(16,16,47)" stroke="rgb(16,16,47)" stroke-width="1" opacity="0.996078431372549" d="M 680.5 450 L 681.5 452 L 679 451.5 L 680.5 450 Z " /><path fill="rgb(16,16,47)" stroke="rgb(16,16,47)" stroke-width="1" opacity="0.996078431372549" d="M 685.5 454 L 685 455.5 L 684.5 458 L 684 455.5 L 685.5 454 Z " /><path fill="rgb(16,16,47)" stroke="rgb(16,16,47)" stroke-width="1" opacity="0.996078431372549" d="M 666.5 464 L 667.5 466 Q 664.7 466.7 666.5 464 Z " /><path fill="rgb(16,16,47)" stroke="rgb(16,16,47)" stroke-width="1" opacity="0.996078431372549" d="M 661 469 Q 664 468 663 471 Q 660 472 661 469 Z " /><path fill="rgb(16,16,47)" stroke="rgb(16,16,47)" stroke-width="1" opacity="0.996078431372549" d="M 666.5 473 Q 669.5 474.5 666.5 476 Q 663.5 474.5 666.5 473 Z " /><path fill="rgb(16,16,47)" stroke="rgb(16,16,47)" stroke-width="1" opacity="0.996078431372549" d="M 647 483 Q 650 482 649 485 Q 646 486 647 483 Z " /><path fill="rgb(16,16,47)" stroke="rgb(16,16,47)" stroke-width="1" opacity="0.996078431372549" d="M 643.5 487 L 644 489.5 L 642 488.5 L 643.5 487 Z " /><path fill="rgb(16,16,47)" stroke="rgb(16,16,47)" stroke-width="1" opacity="0.996078431372549" d="M 634.5 491 L 640 493.5 L 635.5 495 L 634.5 491 Z " /><path fill="rgb(16,16,47)" stroke="rgb(16,16,47)" stroke-width="1" opacity="0.996078431372549" d="M 643.5 492 L 644 494 L 642 493.5 L 643.5 492 Z " /><path fill="rgb(16,16,47)" stroke="rgb(16,16,47)" stroke-width="1" opacity="0.996078431372549" d="M 647 492 Q 650 491 649 494 Q 646 495 647 492 Z " /><path fill="rgb(16,16,47)" stroke="rgb(16,16,47)" stroke-width="1" opacity="0.996078431372549" d="M 579.5 524 L 585 540.5 L 580 541 L 580 543 Q 585.2 541.3 584 545 L 579 544.5 L 579.5 524 Z " /><path fill="rgb(16,16,47)" stroke="rgb(16,16,47)" stroke-width="1" opacity="0.996078431372549" d="M 579 548 L 584 548 L 584 550 L 579 550 L 579 548 Z " /><path fill="rgb(16,16,47)" stroke="rgb(16,16,47)" stroke-width="1" opacity="0.996078431372549" d="M 480 650 Q 483 649 482 652 Q 479 653 480 650 Z " /><path fill="rgb(16,16,47)" stroke="rgb(16,16,47)" stroke-width="1" opacity="0.996078431372549" d="M 475.5 655 Q 477.8 654.3 477 656.5 L 475.5 655 Z " /><path fill="rgb(16,16,47)" stroke="rgb(16,16,47)" stroke-width="1" opacity="0.996078431372549" d="M 476.5 659 L 477 661 L 475 660.5 L 476.5 659 Z " /><path fill="rgb(16,16,47)" stroke="rgb(16,16,47)" stroke-width="1" opacity="0.996078431372549" d="M 480.5 659 L 481.5 661 Q 478.7 661.7 480.5 659 Z " /><path fill="rgb(16,16,47)" stroke="rgb(16,16,47)" stroke-width="1" opacity="0.996078431372549" d="M 462.5 668 L 463 670.5 L 461 669.5 L 462.5 668 Z " /><path fill="rgb(16,16,47)" stroke="rgb(16,16,47)" stroke-width="1" opacity="0.996078431372549" d="M 457.5 673 L 458.5 675 Q 455.7 675.7 457.5 673 Z " /><path fill="rgb(16,16,47)" stroke="rgb(16,16,47)" stroke-width="1" opacity="0.996078431372549" d="M 457 678 L 459 678.5 L 457 679.5 L 457 678 Z " /><path fill="rgb(16,16,47)" stroke="rgb(16,16,47)" stroke-width="1" opacity="0.996078431372549" d="M 461.5 678 Q 463.8 677.3 463 679.5 L 461.5 678 Z " /><path fill="rgb(16,16,47)" stroke="rgb(16,16,47)" stroke-width="1" opacity="0.996078431372549" d="M 443.5 687 L 444.5 689 Q 441.7 689.7 443.5 687 Z " /><path fill="rgb(16,16,47)" stroke="rgb(16,16,47)" stroke-width="1" opacity="0.996078431372549" d="M 438 692 Q 441 691 440 694 Q 437 695 438 692 Z " /><path fill="rgb(16,16,47)" stroke="rgb(16,16,47)" stroke-width="1" opacity="0.996078431372549" d="M 439.5 696 L 440 698 L 438 697.5 L 439.5 696 Z " /><path fill="rgb(16,16,47)" stroke="rgb(16,16,47)" stroke-width="1" opacity="0.996078431372549" d="M 443.5 696 L 444.5 698 Q 441.7 698.7 443.5 696 Z " /><path fill="rgb(16,16,47)" stroke="rgb(16,16,47)" stroke-width="1" opacity="0.996078431372549" d="M 424.5 706 Q 426.8 705.3 426 707.5 L 424.5 706 Z " /><path fill="rgb(16,16,47)" stroke="rgb(16,16,47)" stroke-width="1" opacity="0.996078431372549" d="M 420.5 710 L 421.5 712 L 419 711.5 L 420.5 710 Z " /><path fill="rgb(16,16,47)" stroke="rgb(16,16,47)" stroke-width="1" opacity="0.996078431372549" d="M 424 715 Q 427 714 426 717 Q 423 718 424 715 Z " /><path fill="rgb(16,16,47)" stroke="rgb(16,16,47)" stroke-width="1" opacity="0.996078431372549" d="M 406.5 724 L 407.5 726 Q 404.7 726.7 406.5 724 Z " /><path fill="rgb(16,16,47)" stroke="rgb(16,16,47)" stroke-width="1" opacity="0.996078431372549" d="M 401 729 Q 404 728 403 731 Q 400 732 401 729 Z " /><path fill="rgb(16,16,47)" stroke="rgb(16,16,47)" stroke-width="1" opacity="0.996078431372549" d="M 406.5 733 Q 409.5 734.5 406.5 736 Q 403.5 734.5 406.5 733 Z " /><path fill="rgb(16,16,47)" stroke="rgb(16,16,47)" stroke-width="1" opacity="0.996078431372549" d="M 387 743 Q 390 742 389 745 Q 386 746 387 743 Z " /><path fill="rgb(16,16,47)" stroke="rgb(16,16,47)" stroke-width="1" opacity="0.996078431372549" d="M 383.5 747 L 384 749.5 L 382 748.5 L 383.5 747 Z " /><path fill="rgb(16,16,47)" stroke="rgb(16,16,47)" stroke-width="1" opacity="0.996078431372549" d="M 383.5 752 L 384 754 L 382 753.5 L 383.5 752 Z " /><path fill="rgb(16,16,47)" stroke="rgb(16,16,47)" stroke-width="1" opacity="0.996078431372549" d="M 387 752 Q 390 751 389 754 Q 386 755 387 752 Z " /><path fill="rgb(16,16,47)" stroke="rgb(16,16,47)" stroke-width="1" opacity="0.996078431372549" d="M 369.5 761 Q 372.5 762.5 369.5 764 Q 366.5 762.5 369.5 761 Z " /><path fill="rgb(16,16,47)" stroke="rgb(16,16,47)" stroke-width="1" opacity="0.996078431372549" d="M 364 766 Q 367 765 366 768 Q 363 769 364 766 Z " /><path fill="rgb(16,16,47)" stroke="rgb(16,16,47)" stroke-width="1" opacity="0.996078431372549" d="M 364 771 L 366 771.5 L 364 772.5 L 364 771 Z " /><path fill="rgb(16,16,47)" stroke="rgb(16,16,47)" stroke-width="1" opacity="0.996078431372549" d="M 368.5 771 Q 370.8 770.3 370 772.5 L 368.5 771 Z " /><path fill="rgb(16,16,47)" stroke="rgb(16,16,47)" stroke-width="1" opacity="0.996078431372549" d="M 350 780 Q 353 779 352 782 Q 349 783 350 780 Z " /><path fill="rgb(16,16,47)" stroke="rgb(16,16,47)" stroke-width="1" opacity="0.996078431372549" d="M 345.5 785 Q 347.8 784.3 347 786.5 L 345.5 785 Z " /><path fill="rgb(16,16,47)" stroke="rgb(16,16,47)" stroke-width="1" opacity="0.996078431372549" d="M 346.5 789 L 347 791 L 345 790.5 L 346.5 789 Z " /><path fill="rgb(16,16,47)" stroke="rgb(16,16,47)" stroke-width="1" opacity="0.996078431372549" d="M 350.5 789 L 351.5 791 Q 348.7 791.7 350.5 789 Z " /><path fill="rgb(16,16,47)" stroke="rgb(16,16,47)" stroke-width="1" opacity="0.996078431372549" d="M 332.5 798 L 333 800.5 L 331 799.5 L 332.5 798 Z " /><path fill="rgb(16,16,47)" stroke="rgb(16,16,47)" stroke-width="1" opacity="0.996078431372549" d="M 327.5 803 L 328.5 805 Q 325.7 805.7 327.5 803 Z " /><path fill="rgb(16,16,47)" stroke="rgb(16,16,47)" stroke-width="1" opacity="0.996078431372549" d="M 327 808 L 329 808.5 L 327 809.5 L 327 808 Z " /><path fill="rgb(16,16,47)" stroke="rgb(16,16,47)" stroke-width="1" opacity="0.996078431372549" d="M 331.5 808 Q 333.8 807.3 333 809.5 L 331.5 808 Z " /><path fill="rgb(16,16,47)" stroke="rgb(16,16,47)" stroke-width="1" opacity="0.996078431372549" d="M 313.5 817 L 314.5 819 Q 311.7 819.7 313.5 817 Z " /><path fill="rgb(16,16,47)" stroke="rgb(16,16,47)" stroke-width="1" opacity="0.996078431372549" d="M 308 822 Q 311 821 310 824 Q 307 825 308 822 Z " /><path fill="rgb(16,16,47)" stroke="rgb(16,16,47)" stroke-width="1" opacity="0.996078431372549" d="M 309.5 826 L 310 828 L 308 827.5 L 309.5 826 Z " /><path fill="rgb(16,16,47)" stroke="rgb(16,16,47)" stroke-width="1" opacity="0.996078431372549" d="M 313.5 826 L 314.5 828 Q 311.7 828.7 313.5 826 Z " /><path fill="rgb(0,0,1)" stroke="rgb(0,0,1)" stroke-width="1" opacity="0.03529411764705882" d="M 840.5 269 L 841.5 271 L 840.5 269 Z " /><path fill="rgb(0,0,1)" stroke="rgb(0,0,1)" stroke-width="1" opacity="0.03529411764705882" d="M 220.5 765 L 222 766.5 L 222 773.5 L 224 782.5 L 230 797.5 Q 237.2 810.8 248.5 820 L 268.5 832 L 285.5 836 L 300.5 846 L 325.5 858 L 355.5 869 L 395.5 880 L 431.5 887 L 437.5 887 L 459.5 891 L 478.5 892 L 479.5 893 L 507.5 894 L 508.5 895 L 569.5 895 L 570.5 894 L 586.5 894 L 587.5 893 L 617.5 891 L 624.5 889 L 643.5 887 L 677.5 880 L 705.5 872 Q 730.2 864.2 751.5 853 Q 765.2 846.2 775.5 836 L 796.5 836 L 813.5 831 Q 830.1 823.6 841 810.5 L 850.5 797 L 850 798.5 Q 852.5 802 851 809.5 L 850 811.5 Q 852.5 813 849 814.5 L 849 818.5 Q 845.1 820.6 846 826 Q 843.3 824.9 844 827.5 L 841.5 831 L 839 832.5 L 837.5 835 L 835 836.5 L 833.5 839 L 810.5 853 L 789.5 863 L 784.5 864 L 782.5 866 L 777.5 867 L 775.5 869 L 735.5 883 L 685.5 896 L 675.5 897 L 660.5 901 L 647.5 902 L 641.5 904 L 624.5 905 L 617.5 907 L 606.5 907 L 605.5 908 L 580.5 909 L 579.5 910 L 500.5 910 L 499.5 909 L 462.5 907 L 454.5 905 L 445.5 905 L 430.5 902 L 416.5 901 L 411.5 899 L 405.5 899 L 401.5 897 L 376.5 893 L 364.5 889 L 355.5 888 L 351.5 886 L 333.5 882 L 330.5 880 L 317.5 877 L 300.5 870 L 294.5 869 L 260.5 855 L 234.5 842 L 218 832 Q 219.1 829.3 216.5 830 L 211 825.5 L 209 822.5 L 206.5 819 Q 203.9 819.8 205 816.5 L 200 809.5 L 200 807.5 L 199 804.5 L 199 802.5 L 199 790.5 L 200 788.5 L 200 786.5 L 201 784.5 L 200.5 783 L 202 782.5 L 201.5 781 L 203 780.5 L 203 778.5 L 205.5 774 Q 206.7 776.3 208 773.5 Q 205.8 772.3 208.5 771 L 210 771.5 Q 208.9 768.2 211.5 769 L 213.5 769 Q 215.8 769.8 215 767.5 L 217.5 766 Q 219 768.5 220.5 765 Z " /><path fill="rgb(7,7,21)" stroke="rgb(7,7,21)" stroke-width="1" opacity="0.996078431372549" d="M 835 281 Q 838 280 837 283 Q 834 284 835 281 Z " /><path fill="rgb(7,7,21)" stroke="rgb(7,7,21)" stroke-width="1" opacity="0.996078431372549" d="M 840 281 L 847.5 281 L 849 282.5 L 855 295.5 L 858 310.5 L 858 768.5 L 855 783.5 L 848 799.5 Q 840.9 811.4 830.5 820 L 809.5 832 L 789.5 836 L 288.5 836 Q 285.5 834.5 288.5 833 L 295.5 833 L 296 831 Q 290.8 832.7 292 829 L 304.5 829 L 306 827.5 L 304.5 826 L 297 826 L 297 824 L 304.5 824 L 305 822 L 301 820.5 L 302.5 819 L 310 819 L 310 817 Q 304.8 818.7 306 815 L 313.5 815 L 315 813.5 L 310 811.5 L 311.5 810 L 324 810 L 323.5 808 L 316.5 808 Q 313.5 806.5 316.5 805 L 323.5 805 L 324 803 Q 318.8 804.7 320 801 L 327.5 801 L 329 799.5 L 324 797.5 L 325.5 796 L 333 796 Q 334.3 793 330.5 794 Q 327.5 792.5 330.5 791 L 343 790.5 L 341.5 789 L 334 789 L 334.5 787 L 341.5 787 Q 344.5 785.5 341.5 784 L 338 783.5 L 339.5 782 L 347 782 L 347 780 L 343 780 L 343 778.5 L 344.5 777 L 352 776.5 L 348 775 L 348.5 773 L 360.5 773 L 361 771 L 353.5 771 L 352 769.5 L 353.5 768 L 361 768 L 361 766 Q 355.8 767.7 357 764 L 364.5 764 L 366 762.5 L 362 761 L 362 759 L 369.5 759 L 370 757 L 366 755.5 L 367.5 754 L 380 753.5 L 378.5 752 L 371 752 L 371.5 750 L 378.5 750 Q 381.5 748.5 378.5 747 L 375 746.5 L 376.5 745 L 384 745 Q 385.3 742 381.5 743 Q 378.5 741.5 381.5 740 L 388.5 740 L 389 738 Q 383.8 739.7 385 736 L 397.5 736 L 398 733 L 389 732.5 L 390.5 731 L 398 731 Q 399.3 728 395.5 729 Q 392.5 727.5 395.5 726 L 402.5 726 L 403 724 Q 397.8 725.7 399 722 L 406.5 722 L 408 720.5 L 403 718.5 L 404.5 717 L 417 717 L 417 715 L 408.5 715 L 408 713.5 L 409.5 712 L 417 711.5 L 413 710 L 413.5 708 L 420.5 708 L 421.5 706 Q 417.8 706.8 417 704.5 L 418.5 703 L 426 703 L 426 701 Q 420.8 702.7 422 699 L 434.5 699 L 436 697.5 L 434.5 696 L 427 696 L 427 694 L 434.5 694 L 435 692 L 431 690.5 L 432.5 689 L 440 689 L 440 687 Q 434.8 688.7 436 685 L 443.5 685 L 445 683.5 L 440 681.5 L 441.5 680 L 454 680 L 453.5 678 L 446.5 678 Q 443.5 676.5 446.5 675 L 453.5 675 L 454 673 Q 448.8 674.7 450 671 L 457.5 671 L 459 669.5 L 454 667.5 L 455.5 666 L 463 666 Q 464.3 663 460.5 664 Q 457.5 662.5 460.5 661 L 473 660.5 L 471.5 659 L 464 659 L 464.5 657 L 471.5 657 Q 474.5 655.5 471.5 654 L 468 653.5 L 469.5 652 L 477 652 L 477 650 L 473 650 L 473 648.5 L 474.5 647 L 482 646.5 L 478 645 L 478.5 643 L 490.5 643 L 491 641 L 483.5 641 L 482 639.5 L 483.5 638 L 491 638 L 491 636 Q 485.8 637.7 487 634 L 494.5 634 L 495.5 633 L 496 636 Q 493 635 494 638 Q 497.3 636.9 496 641 Q 493.3 639.9 494 642.5 L 496 642.5 Q 494.8 647.8 497.5 649 L 579 649 L 579 550.5 L 584 550 L 584 548 L 579 548 L 579 545 L 584 545 L 584 543 Q 578.8 544.7 580 541 L 585 541 L 585 543.5 L 616 644.5 L 618.5 649 L 687.5 649 L 689 647.5 L 726.5 525 L 727 649 L 808.5 649 L 809 648.5 L 809 389 L 733 388.5 L 734.5 387 L 742 386.5 L 738 385 L 738.5 383 L 750.5 383 L 751 381 L 743.5 381 L 742 379.5 L 743.5 378 L 751 378 L 751 376 Q 745.8 377.7 747 374 L 754.5 374 L 756 372.5 L 752 371 L 752 369 L 759.5 369 L 760 367 L 756 365.5 L 757.5 364 L 770 363.5 L 768.5 362 L 761 362 L 761.5 360 L 768.5 360 Q 771.5 358.5 768.5 357 L 765 356.5 L 766.5 355 L 774 355 Q 775.3 352 771.5 353 Q 768.5 351.5 771.5 350 L 778.5 350 L 779 348 Q 773.8 349.7 775 346 L 787.5 346 L 788 343 L 779 342.5 L 780.5 341 L 788 341 Q 789.3 338 785.5 339 Q 782.5 337.5 785.5 336 L 792.5 336 L 793 334 Q 787.8 335.7 789 332 L 796.5 332 L 798 330.5 L 793 328.5 L 794.5 327 L 807 327 L 807 325 L 798.5 325 L 798 323.5 L 799.5 322 L 807 321.5 L 803 320 L 803.5 318 L 810.5 318 L 811.5 316 Q 807.8 316.8 807 314.5 L 808.5 313 L 816 313 L 816 311 Q 810.8 312.7 812 309 L 824.5 309 L 826 307.5 L 824.5 306 L 817 306 L 817 304 L 824.5 304 L 825 302 L 821 300.5 L 822.5 299 L 830 299 L 830 297 Q 824.8 298.7 826 295 L 833.5 295 L 835 293.5 L 830 291.5 L 831.5 290 L 844 290 L 843.5 288 L 836.5 288 Q 833.5 286.5 836.5 285 L 843.5 285 L 844 283 Q 838.8 284.7 840 281 Z M 848 283 Q 846 286 849 285 L 848 283 Z M 847 288 L 847 290 L 849 289 L 847 288 Z M 834 297 Q 832 300 835 299 L 834 297 Z M 828 302 Q 827 305 830 304 Q 831 301 828 302 Z M 830 306 L 828 308 L 830 308 L 830 306 Z M 834 306 Q 832 309 835 308 L 834 306 Z M 815 316 L 816 318 Q 817 315 815 316 Z M 811 320 L 809 322 L 812 322 L 811 320 Z M 814 325 Q 813 328 816 327 Q 817 324 814 325 Z M 797 334 Q 795 337 798 336 L 797 334 Z M 791 339 Q 790 342 793 341 Q 794 338 791 339 Z M 797 343 Q 794 345 797 346 Q 800 345 797 343 Z M 777 353 Q 776 356 779 355 Q 780 352 777 353 Z M 774 357 L 772 359 L 774 360 L 774 357 Z M 774 362 L 772 364 L 774 364 L 774 362 Z M 777 362 Q 776 365 779 364 Q 780 361 777 362 Z M 760 371 Q 757 373 760 374 Q 763 373 760 371 Z M 754 376 Q 753 379 756 378 Q 757 375 754 376 Z M 754 381 L 754 383 L 756 382 L 754 381 Z M 759 381 L 760 383 Q 761 380 759 381 Z M 480 650 Q 479 653 482 652 Q 483 649 480 650 Z M 476 655 L 477 657 Q 478 654 476 655 Z M 477 659 L 475 661 L 477 661 L 477 659 Z M 481 659 Q 479 662 482 661 L 481 659 Z M 463 668 L 461 670 L 463 671 L 463 668 Z M 458 673 Q 456 676 459 675 L 458 673 Z M 457 678 L 457 680 L 459 679 L 457 678 Z M 462 678 L 463 680 Q 464 677 462 678 Z M 444 687 Q 442 690 445 689 L 444 687 Z M 438 692 Q 437 695 440 694 Q 441 691 438 692 Z M 440 696 L 438 698 L 440 698 L 440 696 Z M 444 696 Q 442 699 445 698 L 444 696 Z M 425 706 L 426 708 Q 427 705 425 706 Z M 421 710 L 419 712 L 422 712 L 421 710 Z M 424 715 Q 423 718 426 717 Q 427 714 424 715 Z M 407 724 Q 405 727 408 726 L 407 724 Z M 401 729 Q 400 732 403 731 Q 404 728 401 729 Z M 407 733 Q 404 735 407 736 Q 410 735 407 733 Z M 387 743 Q 386 746 389 745 Q 390 742 387 743 Z M 384 747 L 382 749 L 384 750 L 384 747 Z M 384 752 L 382 754 L 384 754 L 384 752 Z M 387 752 Q 386 755 389 754 Q 390 751 387 752 Z M 370 761 Q 367 763 370 764 Q 373 763 370 761 Z M 364 766 Q 363 769 366 768 Q 367 765 364 766 Z M 364 771 L 364 773 L 366 772 L 364 771 Z M 369 771 L 370 773 Q 371 770 369 771 Z M 350 780 Q 349 783 352 782 Q 353 779 350 780 Z M 346 785 L 347 787 Q 348 784 346 785 Z M 347 789 L 345 791 L 347 791 L 347 789 Z M 351 789 Q 349 792 352 791 L 351 789 Z M 333 798 L 331 800 L 333 801 L 333 798 Z M 328 803 Q 326 806 329 805 L 328 803 Z M 327 808 L 327 810 L 329 809 L 327 808 Z M 332 808 L 333 810 Q 334 807 332 808 Z M 314 817 Q 312 820 315 819 L 314 817 Z M 308 822 Q 307 825 310 824 Q 311 821 308 822 Z M 310 826 L 308 828 L 310 828 L 310 826 Z M 314 826 Q 312 829 315 828 L 314 826 Z " /><path fill="rgb(7,7,21)" stroke="rgb(7,7,21)" stroke-width="1" opacity="0.996078431372549" d="M 826.5 290 L 827.5 292 Q 824.7 292.7 826.5 290 Z " /><path fill="rgb(7,7,21)" stroke="rgb(7,7,21)" stroke-width="1" opacity="0.996078431372549" d="M 817.5 299 Q 820.5 300.5 817.5 302 Q 814.5 300.5 817.5 299 Z " /><path fill="rgb(7,7,21)" stroke="rgb(7,7,21)" stroke-width="1" opacity="0.996078431372549" d="M 807.5 309 Q 809.8 308.3 809 310.5 L 807.5 309 Z " /><path fill="rgb(7,7,21)" stroke="rgb(7,7,21)" stroke-width="1" opacity="0.996078431372549" d="M 798 318 Q 801 317 800 320 Q 797 321 798 318 Z " /><path fill="rgb(7,7,21)" stroke="rgb(7,7,21)" stroke-width="1" opacity="0.996078431372549" d="M 789.5 327 L 790.5 329 Q 787.7 329.7 789.5 327 Z " /><path fill="rgb(7,7,21)" stroke="rgb(7,7,21)" stroke-width="1" opacity="0.996078431372549" d="M 779.5 337 Q 781.8 336.3 781 338.5 L 779.5 337 Z " /><path fill="rgb(7,7,21)" stroke="rgb(7,7,21)" stroke-width="1" opacity="0.996078431372549" d="M 770 346 Q 773 345 772 348 Q 769 349 770 346 Z " /><path fill="rgb(7,7,21)" stroke="rgb(7,7,21)" stroke-width="1" opacity="0.996078431372549" d="M 761.5 355 L 762.5 357 Q 759.7 357.7 761.5 355 Z " /><path fill="rgb(7,7,21)" stroke="rgb(7,7,21)" stroke-width="1" opacity="0.996078431372549" d="M 752.5 364 Q 755.5 365.5 752.5 367 Q 749.5 365.5 752.5 364 Z " /><path fill="rgb(7,7,21)" stroke="rgb(7,7,21)" stroke-width="1" opacity="0.996078431372549" d="M 742.5 374 Q 744.8 373.3 744 375.5 L 742.5 374 Z " /><path fill="rgb(7,7,21)" stroke="rgb(7,7,21)" stroke-width="1" opacity="0.996078431372549" d="M 733 383 Q 736 382 735 385 Q 732 386 733 383 Z " /><path fill="rgb(7,7,21)" stroke="rgb(7,7,21)" stroke-width="1" opacity="0.996078431372549" d="M 687.5 429 Q 690.5 430.5 687.5 432 Q 684.5 430.5 687.5 429 Z " /><path fill="rgb(7,7,21)" stroke="rgb(7,7,21)" stroke-width="1" opacity="0.996078431372549" d="M 692.5 429 Q 695.5 428.2 694 432 L 691 430.5 L 692.5 429 Z " /><path fill="rgb(7,7,21)" stroke="rgb(7,7,21)" stroke-width="1" opacity="0.996078431372549" d="M 687 434 L 693 434.5 Q 691.6 437.3 687 436 L 687 434 Z " /><path fill="rgb(7,7,21)" stroke="rgb(7,7,21)" stroke-width="1" opacity="0.996078431372549" d="M 677.5 439 Q 679.8 438.3 679 440.5 L 677.5 439 Z " /><path fill="rgb(7,7,21)" stroke="rgb(7,7,21)" stroke-width="1" opacity="0.996078431372549" d="M 682 439 L 691 439.5 L 686 453.5 L 684 455.5 L 683 462.5 L 653.5 543 L 636 494 L 640 493.5 L 634 490.5 Q 638.6 491.1 640 488.5 L 635 486.5 L 636.5 485 L 644 485 Q 645.3 482 641.5 483 Q 638.5 481.5 641.5 480 L 648.5 480 L 649 478 Q 643.8 479.7 645 476 L 657.5 476 L 658 473 L 649 472.5 L 650.5 471 L 658 471 Q 659.3 468 655.5 469 Q 652.5 467.5 655.5 466 L 662.5 466 L 663 464 Q 657.8 465.7 659 462 L 666.5 462 L 668 460.5 L 663 458.5 L 664.5 457 L 677 457 L 677 455 L 668.5 455 L 668 453.5 L 669.5 452 L 677 451.5 L 673 450 L 673.5 448 L 680.5 448 L 681.5 446 Q 677.8 446.8 677 444.5 L 678.5 443 L 686 443 L 686 441 Q 680.8 442.7 682 439 Z M 685 446 L 686 448 Q 687 445 685 446 Z M 681 450 L 679 452 L 682 452 L 681 450 Z M 667 464 Q 665 467 668 466 L 667 464 Z M 661 469 Q 660 472 663 471 Q 664 468 661 469 Z M 667 473 Q 664 475 667 476 Q 670 475 667 473 Z M 647 483 Q 646 486 649 485 Q 650 482 647 483 Z M 644 487 L 642 489 L 644 490 L 644 487 Z M 644 492 L 642 494 L 644 494 L 644 492 Z M 647 492 Q 646 495 649 494 Q 650 491 647 492 Z " /><path fill="rgb(7,7,21)" stroke="rgb(7,7,21)" stroke-width="1" opacity="0.996078431372549" d="M 668 448 Q 671 447 670 450 Q 667 451 668 448 Z " /><path fill="rgb(7,7,21)" stroke="rgb(7,7,21)" stroke-width="1" opacity="0.996078431372549" d="M 659.5 457 L 660.5 459 Q 657.7 459.7 659.5 457 Z " /><path fill="rgb(7,7,21)" stroke="rgb(7,7,21)" stroke-width="1" opacity="0.996078431372549" d="M 649.5 467 Q 651.8 466.3 651 468.5 L 649.5 467 Z " /><path fill="rgb(7,7,21)" stroke="rgb(7,7,21)" stroke-width="1" opacity="0.996078431372549" d="M 640 476 Q 643 475 642 478 Q 639 479 640 476 Z " /><path fill="rgb(7,7,21)" stroke="rgb(7,7,21)" stroke-width="1" opacity="0.996078431372549" d="M 492.5 624 Q 495.5 625.5 492.5 627 Q 489.5 625.5 492.5 624 Z " /><path fill="rgb(7,7,21)" stroke="rgb(7,7,21)" stroke-width="1" opacity="0.996078431372549" d="M 492 629 Q 497.2 626.9 496 631.5 L 494.5 631 Q 490.8 632 492 629 Z " /><path fill="rgb(7,7,21)" stroke="rgb(7,7,21)" stroke-width="1" opacity="0.996078431372549" d="M 482.5 634 Q 484.8 633.3 484 635.5 L 482.5 634 Z " /><path fill="rgb(7,7,21)" stroke="rgb(7,7,21)" stroke-width="1" opacity="0.996078431372549" d="M 473 643 Q 476 642 475 645 Q 472 646 473 643 Z " /><path fill="rgb(7,7,21)" stroke="rgb(7,7,21)" stroke-width="1" opacity="0.996078431372549" d="M 464.5 652 L 465.5 654 Q 462.7 654.7 464.5 652 Z " /><path fill="rgb(7,7,21)" stroke="rgb(7,7,21)" stroke-width="1" opacity="0.996078431372549" d="M 454.5 662 Q 456.8 661.3 456 663.5 L 454.5 662 Z " /><path fill="rgb(7,7,21)" stroke="rgb(7,7,21)" stroke-width="1" opacity="0.996078431372549" d="M 445 671 Q 448 670 447 673 Q 444 674 445 671 Z " /><path fill="rgb(7,7,21)" stroke="rgb(7,7,21)" stroke-width="1" opacity="0.996078431372549" d="M 436.5 680 L 437.5 682 Q 434.7 682.7 436.5 680 Z " /><path fill="rgb(7,7,21)" stroke="rgb(7,7,21)" stroke-width="1" opacity="0.996078431372549" d="M 427.5 689 Q 430.5 690.5 427.5 692 Q 424.5 690.5 427.5 689 Z " /><path fill="rgb(7,7,21)" stroke="rgb(7,7,21)" stroke-width="1" opacity="0.996078431372549" d="M 417.5 699 Q 419.8 698.3 419 700.5 L 417.5 699 Z " /><path fill="rgb(7,7,21)" stroke="rgb(7,7,21)" stroke-width="1" opacity="0.996078431372549" d="M 408 708 Q 411 707 410 710 Q 407 711 408 708 Z " /><path fill="rgb(7,7,21)" stroke="rgb(7,7,21)" stroke-width="1" opacity="0.996078431372549" d="M 399.5 717 L 400.5 719 Q 397.7 719.7 399.5 717 Z " /><path fill="rgb(7,7,21)" stroke="rgb(7,7,21)" stroke-width="1" opacity="0.996078431372549" d="M 389.5 727 Q 391.8 726.3 391 728.5 L 389.5 727 Z " /><path fill="rgb(7,7,21)" stroke="rgb(7,7,21)" stroke-width="1" opacity="0.996078431372549" d="M 380 736 Q 383 735 382 738 Q 379 739 380 736 Z " /><path fill="rgb(7,7,21)" stroke="rgb(7,7,21)" stroke-width="1" opacity="0.996078431372549" d="M 371.5 745 L 372.5 747 Q 369.7 747.7 371.5 745 Z " /><path fill="rgb(7,7,21)" stroke="rgb(7,7,21)" stroke-width="1" opacity="0.996078431372549" d="M 362.5 754 Q 365.5 755.5 362.5 757 Q 359.5 755.5 362.5 754 Z " /><path fill="rgb(7,7,21)" stroke="rgb(7,7,21)" stroke-width="1" opacity="0.996078431372549" d="M 352.5 764 Q 354.8 763.3 354 765.5 L 352.5 764 Z " /><path fill="rgb(7,7,21)" stroke="rgb(7,7,21)" stroke-width="1" opacity="0.996078431372549" d="M 343 773 Q 346 772 345 775 Q 342 776 343 773 Z " /><path fill="rgb(7,7,21)" stroke="rgb(7,7,21)" stroke-width="1" opacity="0.996078431372549" d="M 334.5 782 L 335.5 784 Q 332.7 784.7 334.5 782 Z " /><path fill="rgb(7,7,21)" stroke="rgb(7,7,21)" stroke-width="1" opacity="0.996078431372549" d="M 324.5 792 Q 326.8 791.3 326 793.5 L 324.5 792 Z " /><path fill="rgb(7,7,21)" stroke="rgb(7,7,21)" stroke-width="1" opacity="0.996078431372549" d="M 315 801 Q 318 800 317 803 Q 314 804 315 801 Z " /><path fill="rgb(7,7,21)" stroke="rgb(7,7,21)" stroke-width="1" opacity="0.996078431372549" d="M 306.5 810 L 307.5 812 Q 304.7 812.7 306.5 810 Z " /><path fill="rgb(7,7,21)" stroke="rgb(7,7,21)" stroke-width="1" opacity="0.996078431372549" d="M 297.5 819 Q 300.5 820.5 297.5 822 Q 294.5 820.5 297.5 819 Z " /><path fill="rgb(7,7,21)" stroke="rgb(7,7,21)" stroke-width="1" opacity="0.996078431372549" d="M 287.5 829 Q 289.8 828.3 289 830.5 L 287.5 829 Z " /><path fill="rgb(122,122,132)" stroke="rgb(122,122,132)" stroke-width="1" opacity="1" d="M 256.5 389 L 257 452.5 L 256 452.5 L 256.5 389 Z " /><path fill="rgb(122,122,132)" stroke="rgb(122,122,132)" stroke-width="1" opacity="1" d="M 808.5 389 L 809 649 L 728.5 649 L 727 647.5 L 727 524.5 L 726 522.5 L 727.5 520 L 728 648 L 807.5 648 L 808 647.5 L 808.5 389 Z " /><path fill="rgb(122,122,132)" stroke="rgb(122,122,132)" stroke-width="1" opacity="1" d="M 578.5 520 L 580 523.5 L 579 524.5 L 579 647.5 L 577.5 649 L 497 648.5 L 578 648 L 578.5 520 Z " /><path fill="rgb(122,122,132)" stroke="rgb(122,122,132)" stroke-width="1" opacity="1" d="M 325.5 648 L 406 648.5 L 325.5 649 L 325.5 648 Z " /><path fill="rgb(122,122,132)" stroke="rgb(122,122,132)" stroke-width="1" opacity="1" d="M 618.5 648 L 688 648.5 L 618.5 649 L 618.5 648 Z " /><path fill="rgb(0,0,0)" stroke="rgb(0,0,0)" stroke-width="1" opacity="0.2196078431372549" d="M 793.5 244 L 796 244.5 L 793.5 245 L 793.5 244 Z " /><path fill="rgb(0,0,0)" stroke="rgb(0,0,0)" stroke-width="1" opacity="0.2196078431372549" d="M 251.5 258 L 250.5 260 L 251.5 258 Z " /><path fill="rgb(0,0,0)" stroke="rgb(0,0,0)" stroke-width="1" opacity="0.2196078431372549" d="M 828.5 258 L 829.5 260 L 828.5 258 Z " /><path fill="rgb(0,0,0)" stroke="rgb(0,0,0)" stroke-width="1" opacity="0.2196078431372549" d="M 245.5 263 L 241.5 268 L 245.5 263 Z " /><path fill="rgb(0,0,0)" stroke="rgb(0,0,0)" stroke-width="1" opacity="0.2196078431372549" d="M 834.5 263 L 838.5 268 L 834.5 263 Z " /><path fill="rgb(0,0,0)" stroke="rgb(0,0,0)" stroke-width="1" opacity="0.2196078431372549" d="M 842.5 272 L 843.5 274 L 842.5 272 Z " /><path fill="rgb(0,0,0)" stroke="rgb(0,0,0)" stroke-width="1" opacity="0.2196078431372549" d="M 857.5 307 L 858 309.5 L 857 309.5 L 857.5 307 Z " /><path fill="rgb(0,0,0)" stroke="rgb(0,0,0)" stroke-width="1" opacity="0.2196078431372549" d="M 857.5 769 L 858 772.5 L 857 772.5 L 857.5 769 Z " /><path fill="rgb(0,0,0)" stroke="rgb(0,0,0)" stroke-width="1" opacity="0.2196078431372549" d="M 856.5 776 L 857 778.5 L 856 778.5 L 856.5 776 Z " /><path fill="rgb(0,0,0)" stroke="rgb(0,0,0)" stroke-width="1" opacity="0.2196078431372549" d="M 847.5 800 L 846.5 802 L 847.5 800 Z " /><path fill="rgb(0,0,0)" stroke="rgb(0,0,0)" stroke-width="1" opacity="0.2196078431372549" d="M 845.5 803 L 844.5 805 L 845.5 803 Z " /><path fill="rgb(0,0,0)" stroke="rgb(0,0,0)" stroke-width="1" opacity="0.2196078431372549" d="M 236.5 806 L 237.5 808 L 236.5 806 Z " /><path fill="rgb(0,0,0)" stroke="rgb(0,0,0)" stroke-width="1" opacity="0.2196078431372549" d="M 843.5 806 L 841.5 809 L 843.5 806 Z " /><path fill="rgb(0,0,0)" stroke="rgb(0,0,0)" stroke-width="1" opacity="0.2196078431372549" d="M 240.5 811 L 246.5 818 L 240.5 811 Z " /><path fill="rgb(0,0,0)" stroke="rgb(0,0,0)" stroke-width="1" opacity="0.2196078431372549" d="M 838.5 812 L 833.5 818 L 838.5 812 Z " /><path fill="rgb(0,0,0)" stroke="rgb(0,0,0)" stroke-width="1" opacity="0.2196078431372549" d="M 250.5 820 L 251.5 822 L 250.5 820 Z " /><path fill="rgb(0,0,0)" stroke="rgb(0,0,0)" stroke-width="1" opacity="0.2196078431372549" d="M 829.5 820 L 828.5 822 L 829.5 820 Z " /><path fill="rgb(0,0,0)" stroke="rgb(0,0,0)" stroke-width="1" opacity="0.2196078431372549" d="M 259.5 826 L 260.5 828 L 259.5 826 Z " /><path fill="rgb(0,0,0)" stroke="rgb(0,0,0)" stroke-width="1" opacity="0.2196078431372549" d="M 818.5 827 L 817.5 829 L 812.5 831 L 812.5 830 L 818.5 827 Z " /><path fill="rgb(0,0,0)" stroke="rgb(0,0,0)" stroke-width="1" opacity="0.2196078431372549" d="M 284.5 835 L 288 835.5 L 284.5 836 L 284.5 835 Z " /><path fill="rgb(0,0,0)" stroke="rgb(0,0,0)" stroke-width="1" opacity="0.2196078431372549" d="M 790.5 835 L 796 835.5 L 790.5 836 L 790.5 835 Z " /><path fill="rgb(0,0,0)" stroke="rgb(0,0,0)" stroke-width="1" opacity="0.2196078431372549" d="M 357.5 836 L 696.5 836 L 697 837.5 L 696 841.5 L 687.5 850 L 661.5 862 L 636.5 869 L 615.5 873 L 594.5 875 L 593.5 876 L 583.5 876 L 582.5 877 L 568.5 877 L 567.5 878 L 506.5 878 L 505.5 877 L 479.5 876 L 478.5 875 L 449.5 872 L 412.5 864 L 380.5 853 Q 367.6 847.4 358 838.5 L 357.5 836 Z " /><path fill="rgb(0,0,0)" stroke="rgb(0,0,0)" stroke-width="1" opacity="0.11764705882352941" d="M 247.5 261 L 246.5 263 L 247.5 261 Z " /><path fill="rgb(0,0,0)" stroke="rgb(0,0,0)" stroke-width="1" opacity="0.11764705882352941" d="M 832.5 261 L 833.5 263 L 832.5 261 Z " /><path fill="rgb(0,0,0)" stroke="rgb(0,0,0)" stroke-width="1" opacity="0.11764705882352941" d="M 240.5 268 L 239.5 270 L 240.5 268 Z " /><path fill="rgb(0,0,0)" stroke="rgb(0,0,0)" stroke-width="1" opacity="0.11764705882352941" d="M 238.5 809 L 239.5 811 L 238.5 809 Z " /><path fill="rgb(0,0,0)" stroke="rgb(0,0,0)" stroke-width="1" opacity="0.11764705882352941" d="M 840.5 810 L 839.5 812 L 840.5 810 Z " /><path fill="rgb(0,0,0)" stroke="rgb(0,0,0)" stroke-width="1" opacity="0.11764705882352941" d="M 247.5 818 L 248.5 820 L 247.5 818 Z " /><path fill="rgb(0,0,0)" stroke="rgb(0,0,0)" stroke-width="1" opacity="0.11764705882352941" d="M 832.5 818 L 831.5 820 L 832.5 818 Z " /><path fill="rgb(0,0,0)" stroke="rgb(0,0,0)" stroke-width="1" opacity="0.11764705882352941" d="M 286.5 836 L 356.5 836 L 358 837.5 L 361.5 842 L 380.5 853 L 401.5 861 L 449.5 872 L 478.5 875 L 479.5 876 L 505.5 877 L 506.5 878 L 567.5 878 L 568.5 877 L 582.5 877 L 583.5 876 L 601.5 875 L 644.5 867 L 676.5 856 Q 688.8 851.3 696 841.5 L 697 836 L 775 836.5 L 758.5 849 L 732.5 862 L 692.5 876 L 659.5 884 L 654.5 884 L 643.5 887 L 624.5 889 L 617.5 891 L 587.5 893 L 586.5 894 L 570.5 894 L 569.5 895 L 508.5 895 L 507.5 894 L 492.5 894 L 491.5 893 L 459.5 891 L 458.5 890 L 431.5 887 L 375.5 875 L 325.5 858 L 293.5 842 L 287.5 838 L 286.5 836 Z " /></svg>